<?xml version="1.0" standalone="no"?>
<svg xmlns="http://www.w3.org/2000/svg" version="1.1" width="100" height="100">
  <title>QR Code</title>
  <desc>https://sendspin-audio.com/</desc>
  <rect style="fill:rgb(255, 255, 255);fill-opacity:1" x="0" y="0" width="100" height="100" />
  <g id="elements">
    <path style="fill:rgb(0, 0, 0)" d="M 0,0 l 4,0 0,4 -4,0 z M 4,0 l 4,0 0,4 -4,0 z M 8,0 l 4,0 0,4 -4,0 z M 12,0 l 4,0 0,4 -4,0 z M 16,0 l 4,0 0,4 -4,0 z M 20,0 l 4,0 0,4 -4,0 z M 24,0 l 4,0 0,4 -4,0 z M 40,0 l 4,0 0,4 -4,0 z M 48,0 l 4,0 0,4 -4,0 z M 64,0 l 4,0 0,4 -4,0 z M 72,0 l 4,0 0,4 -4,0 z M 76,0 l 4,0 0,4 -4,0 z M 80,0 l 4,0 0,4 -4,0 z M 84,0 l 4,0 0,4 -4,0 z M 88,0 l 4,0 0,4 -4,0 z M 92,0 l 4,0 0,4 -4,0 z M 96,0 l 4,0 0,4 -4,0 z M 0,4 l 4,0 0,4 -4,0 z M 24,4 l 4,0 0,4 -4,0 z M 32,4 l 4,0 0,4 -4,0 z M 40,4 l 4,0 0,4 -4,0 z M 60,4 l 4,0 0,4 -4,0 z M 64,4 l 4,0 0,4 -4,0 z M 72,4 l 4,0 0,4 -4,0 z M 96,4 l 4,0 0,4 -4,0 z M 0,8 l 4,0 0,4 -4,0 z M 8,8 l 4,0 0,4 -4,0 z M 12,8 l 4,0 0,4 -4,0 z M 16,8 l 4,0 0,4 -4,0 z M 24,8 l 4,0 0,4 -4,0 z M 48,8 l 4,0 0,4 -4,0 z M 56,8 l 4,0 0,4 -4,0 z M 60,8 l 4,0 0,4 -4,0 z M 64,8 l 4,0 0,4 -4,0 z M 72,8 l 4,0 0,4 -4,0 z M 80,8 l 4,0 0,4 -4,0 z M 84,8 l 4,0 0,4 -4,0 z M 88,8 l 4,0 0,4 -4,0 z M 96,8 l 4,0 0,4 -4,0 z M 0,12 l 4,0 0,4 -4,0 z M 8,12 l 4,0 0,4 -4,0 z M 12,12 l 4,0 0,4 -4,0 z M 16,12 l 4,0 0,4 -4,0 z M 24,12 l 4,0 0,4 -4,0 z M 32,12 l 4,0 0,4 -4,0 z M 36,12 l 4,0 0,4 -4,0 z M 40,12 l 4,0 0,4 -4,0 z M 48,12 l 4,0 0,4 -4,0 z M 52,12 l 4,0 0,4 -4,0 z M 56,12 l 4,0 0,4 -4,0 z M 72,12 l 4,0 0,4 -4,0 z M 80,12 l 4,0 0,4 -4,0 z M 84,12 l 4,0 0,4 -4,0 z M 88,12 l 4,0 0,4 -4,0 z M 96,12 l 4,0 0,4 -4,0 z M 0,16 l 4,0 0,4 -4,0 z M 8,16 l 4,0 0,4 -4,0 z M 12,16 l 4,0 0,4 -4,0 z M 16,16 l 4,0 0,4 -4,0 z M 24,16 l 4,0 0,4 -4,0 z M 36,16 l 4,0 0,4 -4,0 z M 56,16 l 4,0 0,4 -4,0 z M 72,16 l 4,0 0,4 -4,0 z M 80,16 l 4,0 0,4 -4,0 z M 84,16 l 4,0 0,4 -4,0 z M 88,16 l 4,0 0,4 -4,0 z M 96,16 l 4,0 0,4 -4,0 z M 0,20 l 4,0 0,4 -4,0 z M 24,20 l 4,0 0,4 -4,0 z M 32,20 l 4,0 0,4 -4,0 z M 36,20 l 4,0 0,4 -4,0 z M 44,20 l 4,0 0,4 -4,0 z M 48,20 l 4,0 0,4 -4,0 z M 56,20 l 4,0 0,4 -4,0 z M 60,20 l 4,0 0,4 -4,0 z M 72,20 l 4,0 0,4 -4,0 z M 96,20 l 4,0 0,4 -4,0 z M 0,24 l 4,0 0,4 -4,0 z M 4,24 l 4,0 0,4 -4,0 z M 8,24 l 4,0 0,4 -4,0 z M 12,24 l 4,0 0,4 -4,0 z M 16,24 l 4,0 0,4 -4,0 z M 20,24 l 4,0 0,4 -4,0 z M 24,24 l 4,0 0,4 -4,0 z M 32,24 l 4,0 0,4 -4,0 z M 40,24 l 4,0 0,4 -4,0 z M 48,24 l 4,0 0,4 -4,0 z M 56,24 l 4,0 0,4 -4,0 z M 64,24 l 4,0 0,4 -4,0 z M 72,24 l 4,0 0,4 -4,0 z M 76,24 l 4,0 0,4 -4,0 z M 80,24 l 4,0 0,4 -4,0 z M 84,24 l 4,0 0,4 -4,0 z M 88,24 l 4,0 0,4 -4,0 z M 92,24 l 4,0 0,4 -4,0 z M 96,24 l 4,0 0,4 -4,0 z M 36,28 l 4,0 0,4 -4,0 z M 40,28 l 4,0 0,4 -4,0 z M 44,28 l 4,0 0,4 -4,0 z M 56,28 l 4,0 0,4 -4,0 z M 64,28 l 4,0 0,4 -4,0 z M 0,32 l 4,0 0,4 -4,0 z M 4,32 l 4,0 0,4 -4,0 z M 8,32 l 4,0 0,4 -4,0 z M 12,32 l 4,0 0,4 -4,0 z M 16,32 l 4,0 0,4 -4,0 z M 24,32 l 4,0 0,4 -4,0 z M 28,32 l 4,0 0,4 -4,0 z M 32,32 l 4,0 0,4 -4,0 z M 36,32 l 4,0 0,4 -4,0 z M 44,32 l 4,0 0,4 -4,0 z M 48,32 l 4,0 0,4 -4,0 z M 52,32 l 4,0 0,4 -4,0 z M 56,32 l 4,0 0,4 -4,0 z M 68,32 l 4,0 0,4 -4,0 z M 76,32 l 4,0 0,4 -4,0 z M 84,32 l 4,0 0,4 -4,0 z M 92,32 l 4,0 0,4 -4,0 z M 4,36 l 4,0 0,4 -4,0 z M 8,36 l 4,0 0,4 -4,0 z M 16,36 l 4,0 0,4 -4,0 z M 20,36 l 4,0 0,4 -4,0 z M 28,36 l 4,0 0,4 -4,0 z M 40,36 l 4,0 0,4 -4,0 z M 48,36 l 4,0 0,4 -4,0 z M 64,36 l 4,0 0,4 -4,0 z M 76,36 l 4,0 0,4 -4,0 z M 92,36 l 4,0 0,4 -4,0 z M 4,40 l 4,0 0,4 -4,0 z M 8,40 l 4,0 0,4 -4,0 z M 12,40 l 4,0 0,4 -4,0 z M 24,40 l 4,0 0,4 -4,0 z M 28,40 l 4,0 0,4 -4,0 z M 32,40 l 4,0 0,4 -4,0 z M 40,40 l 4,0 0,4 -4,0 z M 56,40 l 4,0 0,4 -4,0 z M 60,40 l 4,0 0,4 -4,0 z M 64,40 l 4,0 0,4 -4,0 z M 68,40 l 4,0 0,4 -4,0 z M 72,40 l 4,0 0,4 -4,0 z M 76,40 l 4,0 0,4 -4,0 z M 80,40 l 4,0 0,4 -4,0 z M 84,40 l 4,0 0,4 -4,0 z M 92,40 l 4,0 0,4 -4,0 z M 96,40 l 4,0 0,4 -4,0 z M 44,44 l 4,0 0,4 -4,0 z M 60,44 l 4,0 0,4 -4,0 z M 68,44 l 4,0 0,4 -4,0 z M 72,44 l 4,0 0,4 -4,0 z M 96,44 l 4,0 0,4 -4,0 z M 0,48 l 4,0 0,4 -4,0 z M 4,48 l 4,0 0,4 -4,0 z M 12,48 l 4,0 0,4 -4,0 z M 16,48 l 4,0 0,4 -4,0 z M 20,48 l 4,0 0,4 -4,0 z M 24,48 l 4,0 0,4 -4,0 z M 28,48 l 4,0 0,4 -4,0 z M 36,48 l 4,0 0,4 -4,0 z M 40,48 l 4,0 0,4 -4,0 z M 44,48 l 4,0 0,4 -4,0 z M 48,48 l 4,0 0,4 -4,0 z M 52,48 l 4,0 0,4 -4,0 z M 56,48 l 4,0 0,4 -4,0 z M 68,48 l 4,0 0,4 -4,0 z M 72,48 l 4,0 0,4 -4,0 z M 76,48 l 4,0 0,4 -4,0 z M 80,48 l 4,0 0,4 -4,0 z M 88,48 l 4,0 0,4 -4,0 z M 92,48 l 4,0 0,4 -4,0 z M 96,48 l 4,0 0,4 -4,0 z M 0,52 l 4,0 0,4 -4,0 z M 12,52 l 4,0 0,4 -4,0 z M 16,52 l 4,0 0,4 -4,0 z M 32,52 l 4,0 0,4 -4,0 z M 36,52 l 4,0 0,4 -4,0 z M 44,52 l 4,0 0,4 -4,0 z M 48,52 l 4,0 0,4 -4,0 z M 52,52 l 4,0 0,4 -4,0 z M 64,52 l 4,0 0,4 -4,0 z M 76,52 l 4,0 0,4 -4,0 z M 84,52 l 4,0 0,4 -4,0 z M 92,52 l 4,0 0,4 -4,0 z M 0,56 l 4,0 0,4 -4,0 z M 12,56 l 4,0 0,4 -4,0 z M 16,56 l 4,0 0,4 -4,0 z M 20,56 l 4,0 0,4 -4,0 z M 24,56 l 4,0 0,4 -4,0 z M 28,56 l 4,0 0,4 -4,0 z M 36,56 l 4,0 0,4 -4,0 z M 40,56 l 4,0 0,4 -4,0 z M 60,56 l 4,0 0,4 -4,0 z M 68,56 l 4,0 0,4 -4,0 z M 76,56 l 4,0 0,4 -4,0 z M 80,56 l 4,0 0,4 -4,0 z M 84,56 l 4,0 0,4 -4,0 z M 92,56 l 4,0 0,4 -4,0 z M 96,56 l 4,0 0,4 -4,0 z M 0,60 l 4,0 0,4 -4,0 z M 8,60 l 4,0 0,4 -4,0 z M 28,60 l 4,0 0,4 -4,0 z M 32,60 l 4,0 0,4 -4,0 z M 40,60 l 4,0 0,4 -4,0 z M 56,60 l 4,0 0,4 -4,0 z M 60,60 l 4,0 0,4 -4,0 z M 76,60 l 4,0 0,4 -4,0 z M 80,60 l 4,0 0,4 -4,0 z M 96,60 l 4,0 0,4 -4,0 z M 0,64 l 4,0 0,4 -4,0 z M 12,64 l 4,0 0,4 -4,0 z M 20,64 l 4,0 0,4 -4,0 z M 24,64 l 4,0 0,4 -4,0 z M 28,64 l 4,0 0,4 -4,0 z M 32,64 l 4,0 0,4 -4,0 z M 36,64 l 4,0 0,4 -4,0 z M 44,64 l 4,0 0,4 -4,0 z M 48,64 l 4,0 0,4 -4,0 z M 52,64 l 4,0 0,4 -4,0 z M 56,64 l 4,0 0,4 -4,0 z M 60,64 l 4,0 0,4 -4,0 z M 64,64 l 4,0 0,4 -4,0 z M 68,64 l 4,0 0,4 -4,0 z M 72,64 l 4,0 0,4 -4,0 z M 76,64 l 4,0 0,4 -4,0 z M 80,64 l 4,0 0,4 -4,0 z M 88,64 l 4,0 0,4 -4,0 z M 32,68 l 4,0 0,4 -4,0 z M 36,68 l 4,0 0,4 -4,0 z M 44,68 l 4,0 0,4 -4,0 z M 52,68 l 4,0 0,4 -4,0 z M 64,68 l 4,0 0,4 -4,0 z M 80,68 l 4,0 0,4 -4,0 z M 84,68 l 4,0 0,4 -4,0 z M 0,72 l 4,0 0,4 -4,0 z M 4,72 l 4,0 0,4 -4,0 z M 8,72 l 4,0 0,4 -4,0 z M 12,72 l 4,0 0,4 -4,0 z M 16,72 l 4,0 0,4 -4,0 z M 20,72 l 4,0 0,4 -4,0 z M 24,72 l 4,0 0,4 -4,0 z M 32,72 l 4,0 0,4 -4,0 z M 36,72 l 4,0 0,4 -4,0 z M 40,72 l 4,0 0,4 -4,0 z M 52,72 l 4,0 0,4 -4,0 z M 56,72 l 4,0 0,4 -4,0 z M 64,72 l 4,0 0,4 -4,0 z M 72,72 l 4,0 0,4 -4,0 z M 80,72 l 4,0 0,4 -4,0 z M 88,72 l 4,0 0,4 -4,0 z M 92,72 l 4,0 0,4 -4,0 z M 96,72 l 4,0 0,4 -4,0 z M 0,76 l 4,0 0,4 -4,0 z M 24,76 l 4,0 0,4 -4,0 z M 36,76 l 4,0 0,4 -4,0 z M 44,76 l 4,0 0,4 -4,0 z M 56,76 l 4,0 0,4 -4,0 z M 64,76 l 4,0 0,4 -4,0 z M 80,76 l 4,0 0,4 -4,0 z M 84,76 l 4,0 0,4 -4,0 z M 92,76 l 4,0 0,4 -4,0 z M 0,80 l 4,0 0,4 -4,0 z M 8,80 l 4,0 0,4 -4,0 z M 12,80 l 4,0 0,4 -4,0 z M 16,80 l 4,0 0,4 -4,0 z M 24,80 l 4,0 0,4 -4,0 z M 32,80 l 4,0 0,4 -4,0 z M 36,80 l 4,0 0,4 -4,0 z M 40,80 l 4,0 0,4 -4,0 z M 44,80 l 4,0 0,4 -4,0 z M 48,80 l 4,0 0,4 -4,0 z M 52,80 l 4,0 0,4 -4,0 z M 60,80 l 4,0 0,4 -4,0 z M 64,80 l 4,0 0,4 -4,0 z M 68,80 l 4,0 0,4 -4,0 z M 72,80 l 4,0 0,4 -4,0 z M 76,80 l 4,0 0,4 -4,0 z M 80,80 l 4,0 0,4 -4,0 z M 88,80 l 4,0 0,4 -4,0 z M 0,84 l 4,0 0,4 -4,0 z M 8,84 l 4,0 0,4 -4,0 z M 12,84 l 4,0 0,4 -4,0 z M 16,84 l 4,0 0,4 -4,0 z M 24,84 l 4,0 0,4 -4,0 z M 32,84 l 4,0 0,4 -4,0 z M 40,84 l 4,0 0,4 -4,0 z M 44,84 l 4,0 0,4 -4,0 z M 52,84 l 4,0 0,4 -4,0 z M 64,84 l 4,0 0,4 -4,0 z M 68,84 l 4,0 0,4 -4,0 z M 72,84 l 4,0 0,4 -4,0 z M 80,84 l 4,0 0,4 -4,0 z M 84,84 l 4,0 0,4 -4,0 z M 88,84 l 4,0 0,4 -4,0 z M 92,84 l 4,0 0,4 -4,0 z M 96,84 l 4,0 0,4 -4,0 z M 0,88 l 4,0 0,4 -4,0 z M 8,88 l 4,0 0,4 -4,0 z M 12,88 l 4,0 0,4 -4,0 z M 16,88 l 4,0 0,4 -4,0 z M 24,88 l 4,0 0,4 -4,0 z M 32,88 l 4,0 0,4 -4,0 z M 40,88 l 4,0 0,4 -4,0 z M 52,88 l 4,0 0,4 -4,0 z M 56,88 l 4,0 0,4 -4,0 z M 60,88 l 4,0 0,4 -4,0 z M 84,88 l 4,0 0,4 -4,0 z M 88,88 l 4,0 0,4 -4,0 z M 96,88 l 4,0 0,4 -4,0 z M 0,92 l 4,0 0,4 -4,0 z M 24,92 l 4,0 0,4 -4,0 z M 32,92 l 4,0 0,4 -4,0 z M 36,92 l 4,0 0,4 -4,0 z M 40,92 l 4,0 0,4 -4,0 z M 44,92 l 4,0 0,4 -4,0 z M 48,92 l 4,0 0,4 -4,0 z M 64,92 l 4,0 0,4 -4,0 z M 68,92 l 4,0 0,4 -4,0 z M 72,92 l 4,0 0,4 -4,0 z M 76,92 l 4,0 0,4 -4,0 z M 80,92 l 4,0 0,4 -4,0 z M 84,92 l 4,0 0,4 -4,0 z M 96,92 l 4,0 0,4 -4,0 z M 0,96 l 4,0 0,4 -4,0 z M 4,96 l 4,0 0,4 -4,0 z M 8,96 l 4,0 0,4 -4,0 z M 12,96 l 4,0 0,4 -4,0 z M 16,96 l 4,0 0,4 -4,0 z M 20,96 l 4,0 0,4 -4,0 z M 24,96 l 4,0 0,4 -4,0 z M 32,96 l 4,0 0,4 -4,0 z M 36,96 l 4,0 0,4 -4,0 z M 48,96 l 4,0 0,4 -4,0 z M 52,96 l 4,0 0,4 -4,0 z M 56,96 l 4,0 0,4 -4,0 z M 72,96 l 4,0 0,4 -4,0 z M 76,96 l 4,0 0,4 -4,0 z M 80,96 l 4,0 0,4 -4,0 z M 84,96 l 4,0 0,4 -4,0 z M 88,96 l 4,0 0,4 -4,0 z M 92,96 l 4,0 0,4 -4,0 z M 96,96 l 4,0 0,4 -4,0 z" />
  </g>
</svg>
